<svg width="400" height="148" viewBox="0 0 400 148" fill="none" xmlns="http://www.w3.org/2000/svg">
<path fill-rule="evenodd" clip-rule="evenodd" d="M0 16.4444V131.556H24V148H47V148H71V65.7778H94V115.111H118V65.7778H141V115.111H165V49.3333H188V0H212V82.2222H235V148H259V131.556H282V115.111H306V16.4444H329V65.7778H353V0H376V98.6667H400V148H376V148H353V148H329V148H306V148H282V148H259V148H235V148H212V148H188V148H165V148H141V148H118V148H94V148H71V148H47V148H24V148H0V148V16.4444Z" fill="#66806D"/>
</svg>
